<?xml version="1.0" encoding="utf-8"?>
<!-- Generator: Adobe Illustrator 15.0.2, SVG Export Plug-In . SVG Version: 6.00 Build 0)  -->
<!DOCTYPE svg PUBLIC "-//W3C//DTD SVG 1.1//EN" "http://www.w3.org/Graphics/SVG/1.1/DTD/svg11.dtd">
<svg version="1.1" id="Layer_1" xmlns="http://www.w3.org/2000/svg" xmlns:xlink="http://www.w3.org/1999/xlink" x="0px" y="0px"
	 width="142px" height="68.979px" viewBox="0 0 142 68.979" enable-background="new 0 0 142 68.979" xml:space="preserve">
<g>
	<path fill="#00A0DE" d="M123.733,0H18.267C8.186,0,0,9.295,0,20.723v13.221c0,11.398,8.137,20.641,18.18,20.689
		c4.973,0.424,8.661,7.746-2.898,14.346c0,0,16.842,0.227,26.836-14.333h81.615c10.08,0,18.267-9.273,18.267-20.702V20.723
		C142,9.295,133.813,0,123.733,0"/>
</g>
<g>
	<path fill="#FFFFFF" d="M12.649,23.483c-0.352-0.797-0.453-1.284-0.453-1.86c0-2.037,1.811-3.1,3.774-3.1
		c2.012,0,2.868,1.285,3.22,2.259l4.63,12.575h0.1l4.63-12.575c0.352-0.974,1.208-2.259,3.221-2.259c1.962,0,3.773,1.062,3.773,3.1
		c0,0.576-0.102,1.063-0.454,1.86l-7.295,16.473c-0.705,1.638-1.46,2.657-3.924,2.657c-2.466,0-3.221-1.02-3.926-2.657
		L12.649,23.483z"/>
	<path fill="#FFFFFF" d="M46.414,12.457c0,1.992-1.812,3.675-4.076,3.675c-2.164,0-4.076-1.727-4.076-3.675
		c0-1.816,1.912-3.499,4.076-3.499C44.5,8.958,46.414,10.597,46.414,12.457 M38.714,22.066c0-2.125,1.509-3.542,3.624-3.542
		c2.113,0,3.623,1.417,3.623,3.542V39.07c0,2.126-1.51,3.543-3.623,3.543c-2.114,0-3.624-1.417-3.624-3.543V22.066z"/>
	<path fill="#FFFFFF" d="M51.243,11.792c0-2.126,1.509-3.542,3.623-3.542c2.114,0,3.624,1.417,3.624,3.542v8.68
		c1.912-1.462,4.377-2.215,6.894-2.215c7.8,0,11.674,6.421,11.674,12.621c0,6.021-4.629,11.999-11.926,11.999
		c-2.466,0-5.283-0.974-6.642-2.923c-0.453,1.684-1.611,2.658-3.624,2.658c-2.113,0-3.623-1.418-3.623-3.543V11.792z M64.175,37.033
		c3.774,0,5.636-3.454,5.636-6.421c0-3.011-1.861-6.51-5.636-6.51c-3.874,0-5.686,3.189-5.686,6.289S60.2,37.033,64.175,37.033"/>
	<path fill="#FFFFFF" d="M87.222,32.694c0.503,3.143,3.472,4.604,6.843,4.604c3.724,0,6.29-2.568,8.202-2.568
		c1.56,0,2.969,1.373,2.969,2.746c0,2.745-6.441,5.401-11.825,5.401c-8.151,0-13.586-5.225-13.586-12.266
		c0-6.465,5.334-12.354,12.982-12.354c7.85,0,13.033,6.287,13.033,11.601c0,1.904-0.956,2.835-3.171,2.835H87.222z M98.594,28.442
		c-0.402-2.789-2.416-4.871-5.787-4.871c-3.221,0-5.384,2.17-5.736,4.871H98.594z"/>
	<path fill="#FFFFFF" d="M124.91,25.697c-1.359,0-4.126-1.859-6.491-1.859c-1.309,0-2.466,0.531-2.466,1.771
		c0,2.966,12.58,2.523,12.58,9.786c0,4.25-4.076,7.482-10.315,7.482c-4.077,0-10.114-2.036-10.114-4.915
		c0-0.974,1.107-2.834,3.119-2.834c2.819,0,4.076,2.17,7.498,2.17c2.214,0,2.868-0.62,2.868-1.815
		c0-2.923-12.579-2.479-12.579-9.786c0-4.428,4.075-7.439,9.812-7.439c3.573,0,9.057,1.462,9.057,4.605
		C127.878,24.324,126.621,25.697,124.91,25.697"/>
</g>
</svg>
